<?xml version="1.0" encoding="UTF-8" standalone="no"?>
<!-- Created with Inkscape (http://www.inkscape.org/) -->

<svg
   width="100mm"
   height="100mm"
   viewBox="0 0 100 100"
   version="1.1"
   id="svg1"
   xml:space="preserve"
   inkscape:version="1.4.3 (fcd0343856, 2026-01-01)"
   sodipodi:docname="logo-primaria-sanitycode.svg"
   xmlns:inkscape="http://www.inkscape.org/namespaces/inkscape"
   xmlns:sodipodi="http://sodipodi.sourceforge.net/DTD/sodipodi-0.dtd"
   xmlns="http://www.w3.org/2000/svg"
   xmlns:svg="http://www.w3.org/2000/svg"><sodipodi:namedview
     id="namedview1"
     pagecolor="#ffffff"
     bordercolor="#999999"
     borderopacity="1"
     inkscape:showpageshadow="2"
     inkscape:pageopacity="0"
     inkscape:pagecheckerboard="0"
     inkscape:deskcolor="#d1d1d1"
     inkscape:document-units="mm"
     inkscape:zoom="2"
     inkscape:cx="210.75"
     inkscape:cy="168.75"
     inkscape:window-width="1868"
     inkscape:window-height="1131"
     inkscape:window-x="52"
     inkscape:window-y="800"
     inkscape:window-maximized="1"
     inkscape:current-layer="layer2" /><defs
     id="defs1" /><g
     inkscape:groupmode="layer"
     id="layer2"
     inkscape:label="Vector"
     style="opacity:1"><path
       id="rect1"
       style="fill:#317fd0;fill-opacity:1;stroke-width:0.260158;stroke-dasharray:none"
       d="m 32.811579,0.56275641 c -2.523971,-9.489e-5 -4.570077,2.04601109 -4.569983,4.56998179 9.3e-5,2.322953 1.742873,4.2762294 4.050795,4.5400587 l 1.192028,2.4843351 c -8.591323,0.826865 -14.63119,6.618128 -17.347751,14.487109 h -0.942949 c -2.784721,0 -5.026898,2.241369 -5.026898,5.02609 v 6.734072 c 0,2.784722 2.242177,5.026899 5.026898,5.026899 h 1.419276 c 0.0189,0 0.03776,-6.04e-4 0.05661,-8.09e-4 1.598325,3.76723 3.16917,6.982924 6.47959,9.297659 -6.218458,2.480144 -10.590776,8.545565 -10.590776,15.669432 v 5.715914 c 0,0.421628 0.01518,0.839807 0.04528,1.25349 5.8e-5,8.1e-4 -6e-5,0.0016 0,0.0025 l 0.152035,21.299624 c 0,0 -0.09274,1.912503 1.049697,2.448755 1.142452,0.536252 2.051748,0.162635 2.751209,-0.373622 0.530936,-0.407049 6.905309,-5.555826 9.946239,-8.013439 0.948834,0.164438 1.9254,0.249888 2.922653,0.249888 h 37.518975 c 9.344252,0 16.866312,-7.522868 16.866312,-16.867121 v -5.715914 c 0,-6.509898 -3.650542,-12.13576 -9.025126,-14.949686 3.848017,-2.357028 5.838995,-5.879854 7.606112,-10.084528 0.190064,0.02162 0.383805,0.03235 0.57984,0.03235 h 1.419275 c 2.784724,0 5.02609,-2.241366 5.02609,-5.026088 v -6.734071 c 0,-2.784722 -2.241366,-5.026899 -5.02609,-5.026899 h -1.419275 c -0.02916,0 -0.05832,3.19e-4 -0.08733,8.08e-4 C 80.252255,19.026598 74.608156,13.380284 66.424523,12.25907 l 1.213856,-2.4390897 h 8.09e-4 c 2.397902,-0.1632375 4.259548,-2.1560147 4.259439,-4.5594668 9.4e-5,-2.5236544 -2.045519,-4.56962932 -4.569173,-4.56998176 -2.52397,-9.323e-5 -4.570074,2.04601216 -4.56998,4.56998176 -3.7e-5,0.7194967 0.169816,1.4288354 0.495735,2.0702808 L 60.902691,12.055236 H 39.018375 L 36.782309,7.3938713 C 37.174565,6.7048374 37.380801,5.9256018 37.38075,5.1327382 37.380844,2.6090845 35.335233,0.56310996 32.811579,0.56275641 Z M 36.684457,19.145138 h 25.06252 c 8.398382,0 14.100806,6.761564 14.100806,15.159948 v 1.762973 c 0,8.398384 -5.702424,15.159141 -14.100806,15.159141 h -25.06252 c -8.398383,0 -14.101615,-6.760757 -14.101615,-15.159141 v -1.762973 c 0,-8.398384 5.703232,-15.159948 14.101615,-15.159948 z m 24.858727,8.477634 c -2.214887,-6.4e-5 -4.010423,1.795472 -4.010359,4.010359 -6.5e-5,2.214887 1.795472,4.010424 4.010359,4.01036 2.214887,6.4e-5 4.010424,-1.795473 4.010359,-4.01036 6.4e-5,-2.214887 -1.795472,-4.010423 -4.010359,-4.010359 z M 38.29863,27.748924 c -2.214888,-6.6e-5 -4.010426,1.795472 -4.010361,4.01036 -6.4e-5,2.214887 1.795474,4.010424 4.010361,4.010358 2.214886,6.4e-5 4.010422,-1.795472 4.010358,-4.010358 6.5e-5,-2.214887 -1.795471,-4.010424 -4.010358,-4.01036 z m 3.487126,12.47829 c -0.774047,-7.4e-5 -1.401556,0.627435 -1.401481,1.401481 -6.8e-5,0.451011 0.216937,0.874492 0.583074,1.137847 v 8.08e-4 c 0.0042,0.0064 0.04653,0.03954 0.05338,0.04771 h 8.1e-4 v 8.06e-4 c 2.35756,1.714591 3.929196,3.0004 9.02351,3.165265 4.1916,0.135653 7.366101,-2.05469 8.434773,-3.010802 0.512226,-0.498437 0.823386,-0.756569 0.82326,-1.314951 7.5e-5,-0.774047 -0.627434,-1.401556 -1.401481,-1.401483 -0.278417,-0.01146 -0.454203,0.0219 -0.750479,0.220778 -0.07544,0.05064 -0.134941,0.102015 -0.202175,0.152842 -0.812099,0.606529 -3.772574,2.675455 -7.018734,2.616964 -3.517389,-0.06336 -6.243254,-1.596695 -7.050274,-2.491614 -0.05061,-0.06257 -0.0467,-0.05048 -0.08896,-0.10513 -0.07687,-0.05728 -0.352174,-0.42031 -1.005218,-0.420524 z m 3.360972,17.272281 h 7.847655 c 0.69358,0 1.251872,0.558292 1.251872,1.251872 v 7.141658 h 7.178859 c 0.693578,0 1.251871,0.558293 1.251871,1.251873 v 7.847655 c 0,0.69358 -0.558293,1.251872 -1.251871,1.251872 h -7.178859 v 7.328469 c 0,0.69358 -0.558292,1.251872 -1.251872,1.251872 h -7.847655 c -0.69358,0 -1.251873,-0.558292 -1.251873,-1.251872 v -7.328469 h -7.291267 c -0.693581,0 -1.251874,-0.558292 -1.251874,-1.251872 v -7.847655 c 0,-0.69358 0.558293,-1.251873 1.251874,-1.251873 h 7.291267 v -7.141658 c 0,-0.69358 0.558293,-1.251872 1.251873,-1.251872 z"
       sodipodi:nodetypes="cccccsssssccsssccsscssssccsssssscccccccccccccsssssssssccccccccccsccccccscccsccccssssscsssscsssscsssscss" /></g></svg>
