<?xml version="1.0" encoding="UTF-8" standalone="no"?>
<!-- Created with Inkscape (http://www.inkscape.org/) -->

<svg
   width="100mm"
   height="100mm"
   viewBox="0 0 100 100"
   version="1.1"
   id="svg1"
   xml:space="preserve"
   inkscape:version="1.4.3 (fcd0343856, 2026-01-01)"
   sodipodi:docname="logo-primaria-sanitycode-equipo.svg"
   xmlns:inkscape="http://www.inkscape.org/namespaces/inkscape"
   xmlns:sodipodi="http://sodipodi.sourceforge.net/DTD/sodipodi-0.dtd"
   xmlns="http://www.w3.org/2000/svg"
   xmlns:svg="http://www.w3.org/2000/svg"><sodipodi:namedview
     id="namedview1"
     pagecolor="#ffffff"
     bordercolor="#999999"
     borderopacity="1"
     inkscape:showpageshadow="2"
     inkscape:pageopacity="0"
     inkscape:pagecheckerboard="0"
     inkscape:deskcolor="#d1d1d1"
     inkscape:document-units="mm"
     inkscape:zoom="2"
     inkscape:cx="210.75"
     inkscape:cy="168.75"
     inkscape:window-width="1868"
     inkscape:window-height="1131"
     inkscape:window-x="52"
     inkscape:window-y="800"
     inkscape:window-maximized="1"
     inkscape:current-layer="layer2" /><defs
     id="defs1"><rect
       x="34.5"
       y="292"
       width="306.5"
       height="71"
       id="rect2" /></defs><g
     inkscape:groupmode="layer"
     id="layer2"
     inkscape:label="Vector"
     style="opacity:1"><path
       id="rect1"
       style="fill:#317fd0;fill-opacity:1;stroke-width:0.187017;stroke-dasharray:none"
       d="m 37.850038,2.944006 c -1.814379,-6.8e-5 -3.285239,1.470793 -3.285172,3.285171 6.7e-5,1.669875 1.252879,3.074004 2.911949,3.26366 l 0.856899,1.785886 c -6.175946,0.594399 -10.517756,4.757498 -12.470579,10.414183 h -0.677847 c -2.001821,0 -3.613629,1.611227 -3.613629,3.613048 v 4.840845 c 0,2.001822 1.611808,3.61363 3.613629,3.61363 h 1.020258 c 0.01359,0 0.02714,-4.34e-4 0.04069,-5.82e-4 1.14897,2.708106 2.278185,5.019735 4.657909,6.683702 -4.470192,1.782873 -7.61327,6.143053 -7.61327,11.264106 v 4.108934 c 0,0.303091 0.01091,0.603703 0.03255,0.901082 4.2e-5,5.82e-4 -4.3e-5,0.0011 0,0.0018 l 0.109292,15.311418 c 0,0 -0.06667,1.374819 0.754584,1.760309 0.821261,0.385489 1.474917,0.116911 1.97773,-0.268582 0.381668,-0.29261 4.963941,-3.993853 7.149939,-5.760529 0.682078,0.118207 1.384091,0.179634 2.100975,0.179634 h 26.970837 c 6.717196,0 12.124494,-5.407878 12.124494,-12.125075 v -4.108934 c 0,-4.679696 -2.624224,-8.723895 -6.48779,-10.74671 2.76618,-1.69437 4.197412,-4.226784 5.467719,-7.24935 0.136629,0.01554 0.275902,0.02325 0.416823,0.02325 h 1.020258 c 2.001823,0 3.613048,-1.611225 3.613048,-3.613046 v -4.840845 c 0,-2.001821 -1.611225,-3.61363 -3.613048,-3.61363 h -1.020258 c -0.02096,0 -0.04192,2.3e-4 -0.06278,5.81e-4 C 71.953169,16.216896 67.89586,12.157994 62.012985,11.352 l 0.872591,-1.753361 h 5.82e-4 C 64.60991,9.481295 65.94817,8.04877 65.948092,6.321027 c 6.8e-5,-1.81415 -1.470439,-3.284917 -3.284589,-3.28517 -1.814378,-6.7e-5 -3.285237,1.470793 -3.28517,3.28517 -2.6e-5,0.517217 0.122074,1.027131 0.356364,1.48824 l -1.691128,3.396205 H 42.311846 L 40.704431,7.85461 c 0.281977,-0.495318 0.430231,-1.055478 0.430195,-1.625435 6.7e-5,-1.81415 -1.470438,-3.284916 -3.284588,-3.285171 z m 2.784051,13.358105 h 18.016408 c 6.037249,0 10.136486,4.860608 10.136486,10.897859 v 1.267328 c 0,6.037251 -4.099237,10.897279 -10.136486,10.897279 H 40.634089 c -6.037249,0 -10.137067,-4.860028 -10.137067,-10.897279 V 27.19997 c 0,-6.037251 4.099818,-10.897859 10.137067,-10.897859 z m 17.86991,6.09422 c -1.592191,-4.6e-5 -2.882927,1.290691 -2.882881,2.882881 -4.7e-5,1.592191 1.29069,2.882928 2.882881,2.882882 1.59219,4.6e-5 2.882928,-1.290691 2.882881,-2.882882 4.6e-5,-1.59219 -1.290691,-2.882927 -2.882881,-2.882881 z m -16.709548,0.09069 c -1.592191,-4.8e-5 -2.882929,1.29069 -2.882882,2.882881 -4.6e-5,1.592191 1.290692,2.882928 2.882882,2.882881 1.59219,4.6e-5 2.882927,-1.290691 2.882881,-2.882881 4.6e-5,-1.59219 -1.29069,-2.882927 -2.882881,-2.882881 z m 2.506751,8.970126 c -0.55643,-5.4e-5 -1.007521,0.451037 -1.007467,1.007466 -4.9e-5,0.324213 0.155947,0.628636 0.419148,0.817951 v 5.81e-4 c 0.003,0.0046 0.03345,0.02842 0.03837,0.0343 h 5.82e-4 v 5.79e-4 c 1.694752,1.232549 2.824536,2.156864 6.486628,2.275378 3.013167,0.09752 5.295185,-1.477031 6.063409,-2.164341 0.368218,-0.358305 0.591898,-0.543866 0.591807,-0.945263 5.4e-5,-0.556431 -0.451036,-1.007521 -1.007466,-1.007469 -0.200143,-0.0082 -0.326508,0.01574 -0.539489,0.158709 -0.05423,0.0364 -0.097,0.07333 -0.145335,0.109871 -0.583784,0.436009 -2.711947,1.923274 -5.045477,1.881227 -2.528505,-0.04555 -4.488017,-1.147797 -5.06815,-1.791118 -0.03638,-0.04498 -0.03357,-0.03629 -0.06395,-0.07557 -0.05526,-0.04118 -0.253163,-0.302144 -0.722609,-0.302298 z m 2.416064,12.416327 h 5.641354 c 0.498586,0 0.899919,0.401333 0.899919,0.899919 v 5.133842 h 5.160584 c 0.498585,0 0.899918,0.401334 0.899918,0.89992 v 5.641354 c 0,0.498586 -0.401333,0.899919 -0.899918,0.899919 h -5.160584 v 5.268133 c 0,0.498586 -0.401333,0.899919 -0.899919,0.899919 h -5.641354 c -0.498586,0 -0.89992,-0.401333 -0.89992,-0.899919 v -5.268133 h -5.24139 c -0.498587,0 -0.89992,-0.401333 -0.89992,-0.899919 v -5.641354 c 0,-0.498586 0.401333,-0.89992 0.89992,-0.89992 h 5.24139 v -5.133842 c 0,-0.498586 0.401334,-0.899919 0.89992,-0.899919 z"
       sodipodi:nodetypes="cccccsssssccsssccsscssssccsssssscccccccccccccsssssssssccccccccccsccccccscccsccccssssscsssscsssscsssscss" /><text
       xml:space="preserve"
       transform="matrix(0.33128348,0,0,0.33128348,-11.143398,-21.735873)"
       id="text1"
       style="font-style:normal;font-variant:normal;font-weight:normal;font-stretch:normal;font-size:48px;font-family:'Arial Black';-inkscape-font-specification:'Arial Black, ';writing-mode:lr-tb;direction:ltr;white-space:pre;shape-inside:url(#rect2);fill:#317fd0;stroke-width:0.623622"><tspan
         x="34.5"
         y="335.03579"
         id="tspan1">SanityCode</tspan></text></g></svg>
